Coordinates
version=1
nRows=11
nColumns=40
inDegrees=yes

Units are S.I. units (second, meters, Newtons, ...)
Angles are in degrees.

endheader
time	pelvis_tilt	pelvis_list	pelvis_rotation	pelvis_tx	pelvis_ty	pelvis_tz	hip_flexion_r	hip_adduction_r	hip_rotation_r	knee_angle_r	knee_angle_r_beta	ankle_angle_r	subtalar_angle_r	mtp_angle_r	hip_flexion_l	hip_adduction_l	hip_rotation_l	knee_angle_l	knee_angle_l_beta	ankle_angle_l	subtalar_angle_l	mtp_angle_l	lumbar_extension	lumbar_bending	lumbar_rotation	arm_flex_r	arm_add_r	arm_rot_r	elbow_flex_r	pro_sup_r	wrist_flex_r	wrist_dev_r	arm_flex_l	arm_add_l	arm_rot_l	elbow_flex_l	pro_sup_l	wrist_flex_l	wrist_dev_l
     24.76400000	     -0.62949930	     -8.83423776	      0.07177704	      1.00636404	      0.91526711	      0.53127638	     11.39746127	     10.87704583	     -8.31407393	     25.67290448	     25.67290448	     16.80172813	    -10.59717884	     -1.43128804	     25.71896986	    -17.18144205	      4.90797300	     70.18593890	     70.18593890	      6.00816782	    -19.39605541	     17.73312172	     -9.87926039	      6.49022132	      0.71603896	      8.93340520	    -16.26691939	     -2.90992435	     42.44251403	     45.79989118	      0.00000000	      0.00000000	      6.10196385	     -8.73885474	      3.77479322	     33.52759863	     46.44950136	      0.00000000	      0.00000000
     24.78800000	     -0.49151337	     -8.93209029	      0.80609437	      1.00514942	      0.91443120	      0.53325049	     11.19901542	     11.17419069	     -8.55897125	     25.86780890	     25.86780890	     17.05083160	    -11.34675641	     -1.25354315	     28.25532729	    -17.26813953	      5.58817788	     71.87459371	     71.87459371	      5.45798920	    -19.55651567	     19.29582232	    -10.03757964	      6.40121773	      0.41328208	     12.41795407	    -15.96134545	     -3.26828670	     44.90763593	     45.74382516	      0.00000000	      0.00000000	      3.50226280	     -8.62338236	      4.15905485	     30.98199162	     46.34933630	      0.00000000	      0.00000000
     24.81200000	     -0.40981206	     -8.92211420	      1.49372969	      1.00377289	      0.91413673	      0.53468747	     10.95456869	     11.32936425	     -8.77231669	     25.86969817	     25.86969817	     17.32289565	    -11.91772702	     -0.71827420	     30.56062971	    -17.07472870	      6.04727513	     72.57444169	     72.57444169	      6.46500061	    -19.62900417	     22.94623345	    -10.22222012	      6.24845970	      0.82065045	     15.30608295	    -16.13387207	     -3.48856169	     48.29035321	     45.64051071	      0.00000000	      0.00000000	      1.80882169	     -8.28648793	      4.87899010	     27.43862709	     46.19872492	      0.00000000	      0.00000000
     24.83600000	     -0.44129372	     -8.82661248	      2.19615943	      1.00232032	      0.91427717	      0.53554112	     10.67405992	     11.32776974	     -9.13728291	     25.57187848	     25.57187848	     17.40121369	    -12.20168933	     -0.51301186	     32.48805196	    -16.75504151	      6.14827627	     71.95877377	     71.95877377	      7.19688663	    -19.67368211	     23.37459919	    -10.29583895	      6.06880592	      0.67764795	     18.84322461	    -15.90525402	     -3.87702239	     51.12596901	     45.57339292	      0.00000000	      0.00000000	     -0.60953630	     -8.26278955	      5.20738223	     25.73699762	     46.09836863	      0.00000000	      0.00000000
     24.86000000	     -0.56908588	     -8.55991412	      2.88111466	      1.00072218	      0.91490041	      0.53570950	     10.38519580	     11.07947752	     -9.55896259	     25.09259661	     25.09259661	     17.42089400	    -12.28138547	     -0.30010239	     34.01815292	    -16.06086955	      6.02714889	     70.15167998	     70.15167998	      8.52718057	    -19.68534149	     23.80361615	    -10.31790081	      5.77861662	      0.66206953	     22.23861531	    -15.77239258	     -4.19013792	     54.35040417	     45.48896530	      0.00000000	      0.00000000	     -2.84798506	     -8.26999002	      5.56372776	     24.38704928	     45.98932025	      0.00000000	      0.00000000
     24.88400000	     -0.83802726	     -8.16304536	      3.56103215	      0.99896754	      0.91585028	      0.53519938	     10.15490470	     10.60782355	    -10.09625511	     24.47014463	     24.47014463	     17.40174405	    -12.06711214	     -0.15747019	     35.14056090	    -14.98364769	      5.85326004	     67.14719216	     67.14719216	     10.01648500	    -19.66630046	     23.79943174	    -10.26295274	      5.41767300	      0.72797218	     25.46199791	    -15.80121529	     -4.44800584	     58.04158025	     45.38655549	      0.00000000	      0.00000000	     -4.93651174	     -8.32203516	      5.96875145	     23.56007455	     45.86331194	      0.00000000	      0.00000000
     24.90800000	     -1.16235121	     -7.58784048	      4.21879208	      0.99712260	      0.91718357	      0.53404628	      9.89223812	      9.89571270	    -10.64183875	     23.74197559	     23.74197559	     17.34561555	    -11.72263906	     -0.07690014	     35.66500987	    -13.50807004	      5.71373829	     62.95027635	     62.95027635	     11.29237380	    -19.61041651	     23.17102149	    -10.19000043	      4.89548976	      0.84464825	     28.71767908	    -15.83759473	     -4.67180431	     61.47416158	     45.29353373	      0.00000000	      0.00000000	     -6.83352881	     -8.42663076	      6.28857110	     23.10028411	     45.75412527	      0.00000000	      0.00000000
     24.93200000	     -1.68737331	     -7.02065219	      4.90748943	      0.99515923	      0.91833214	      0.53232023	      9.81433993	      9.06528206	    -11.53117886	     22.97223003	     22.97223003	     17.23512669	    -10.94677353	     -0.37040750	     35.82047595	    -11.90784155	      5.76662138	     57.68010255	     57.68010255	     11.35356467	    -19.49584497	     19.96916988	    -10.02977801	      4.45727068	      1.41457852	     30.94441218	    -16.69239883	     -4.74900054	     67.25067372	     45.12216579	      0.00000000	      0.00000000	     -8.75219267	     -8.82745172	      7.36543725	     24.34783928	     45.46032814	      0.00000000	      0.00000000
     24.95600000	     -2.09944230	     -6.33889855	      5.56872094	      0.99335274	      0.91984568	      0.53018134	      9.51251149	      8.18452918	    -12.08249374	     22.08094087	     22.08094087	     17.11179512	    -10.56365305	     -0.34224009	     35.29341970	    -10.10694549	      6.14746658	     51.70130267	     51.70130267	     11.50666905	    -19.21666340	     18.61170722	     -9.89670320	      3.89914501	      1.34818358	     34.39607769	    -16.55686263	     -4.96493400	     70.08177059	     45.05506449	      0.00000000	      0.00000000	    -10.18864810	     -8.94559204	      7.83658039	     24.09676806	     45.33921789	      0.00000000	      0.00000000
     24.98000000	     -2.63547631	     -5.71014885	      6.16695818	      0.99161808	      0.92100390	      0.52778041	      9.36091286	      7.33816738	    -12.56723309	     21.25113788	     21.25113788	     16.98228250	    -10.22710023	     -0.32584061	     34.51816667	     -8.47104557	      6.73910796	     45.37446273	     45.37446273	     11.30029424	    -18.52198572	     17.66275395	     -9.61340876	      3.36061101	      1.54862096	     37.61281338	    -16.70324698	     -5.07379399	     72.53064315	     44.99466688	      0.00000000	      0.00000000	    -11.29481411	     -9.09041468	      8.06844607	     24.09811698	     45.26954305	      0.00000000	      0.00000000
     25.00400000	     -2.92916172	     -5.42595561	      6.80363321	      0.99059312	      0.92187092	      0.52538430	      8.82733890	      6.87104742	    -13.38704388	     20.22360973	     20.22360973	     16.66243201	     -9.54476615	     -1.36240001	     32.93002911	     -7.74291531	      6.89217570	     38.23099958	     38.23099958	      7.03427150	    -17.59055481	      6.59740472	     -9.63363844	      3.24561160	      1.93446250	     39.88184189	    -17.29396217	     -4.86168282	     77.76347337	     44.87405639	      0.00000000	      0.00000000	    -12.87488677	     -9.78806984	     10.62433889	     26.52862695	     44.77223419	      0.00000000	      0.00000000
